<?xml version="1.0" encoding="UTF-8" standalone="no"?>
<!-- Generator: Adobe Illustrator 18.1.0, SVG Export Plug-In . SVG Version: 6.00 Build 0)  -->

<svg
   xmlns:dc="http://purl.org/dc/elements/1.1/"
   xmlns:cc="http://creativecommons.org/ns#"
   xmlns:rdf="http://www.w3.org/1999/02/22-rdf-syntax-ns#"
   xmlns:svg="http://www.w3.org/2000/svg"
   xmlns="http://www.w3.org/2000/svg"
   xmlns:sodipodi="http://sodipodi.sourceforge.net/DTD/sodipodi-0.dtd"
   xmlns:inkscape="http://www.inkscape.org/namespaces/inkscape"
   version="1.1"
   x="0px"
   y="0px"
   viewBox="0 0 512 507"
   enable-background="new 0 0 512 512"
   xml:space="preserve"
   id="svg11"
   sodipodi:docname="tree.svg"
   width="512"
   height="507"
   style="shape-rendering:crispEdges"
   inkscape:version="0.92.3 (2405546, 2018-03-11)"><metadata
   id="metadata17"><rdf:RDF><cc:Work
       rdf:about=""><dc:format>image/svg+xml</dc:format><dc:type
         rdf:resource="http://purl.org/dc/dcmitype/StillImage" /><dc:title></dc:title></cc:Work></rdf:RDF></metadata><defs
   id="defs15" /><sodipodi:namedview
   pagecolor="#ffffff"
   bordercolor="#666666"
   borderopacity="1"
   objecttolerance="10"
   gridtolerance="10"
   guidetolerance="10"
   inkscape:pageopacity="0"
   inkscape:pageshadow="2"
   inkscape:window-width="742"
   inkscape:window-height="480"
   id="namedview13"
   showgrid="false"
   inkscape:zoom="0.4609375"
   inkscape:cx="256"
   inkscape:cy="256"
   inkscape:window-x="0"
   inkscape:window-y="0"
   inkscape:window-maximized="0"
   inkscape:current-layer="svg11" />
<g
   id="Layer_2"
   transform="translate(0,-5)">
	<path
   d="m 374.151,335.414 c -3.728,-1.414 -7.902,0.461 -9.318,4.191 -5.635,14.846 -12.63,30.639 -22.121,43.788 -0.846,-6.772 -2.461,-13.479 -3.758,-18.857 -0.493,-2.044 -0.959,-3.976 -1.107,-4.89 -0.64,-3.938 -4.355,-6.608 -8.29,-5.974 -3.939,0.641 -6.613,4.352 -5.974,8.29 0.236,1.455 0.717,3.443 1.323,5.962 1.316,5.456 3.306,13.702 3.795,20.948 0.526,7.777 -0.932,10.873 -1.876,11.477 -0.46,0.294 -0.871,0.634 -1.24,1.006 -8.395,6.348 -18.204,10.626 -29.778,11.723 V 302.972 c 0,-16.123 -13.073,-29.211 -29.203,-29.211 -16.13,0 -29.203,13.088 -29.203,29.211 v 192.936 c 0,16.123 58.406,16.123 58.406,0 V 427.58 c 15.846,-1.192 28.914,-7.106 39.773,-15.74 0.276,-0.206 0.54,-0.422 0.799,-0.642 20.858,-17.01 33.459,-44.055 41.964,-66.465 1.416,-3.731 -0.461,-7.903 -4.192,-9.319 z"
   id="path2"
   inkscape:connector-curvature="0"
   style="fill:#8e6049" />
</g>
<g
   id="Layer_3"
   transform="translate(0,-5)">
	<path
   d="m 425.834,166.186 c -3.365,-3.365 -6.962,-6.352 -10.723,-9.004 2.662,-1.997 5.222,-4.194 7.643,-6.615 27.648,-27.648 27.648,-72.473 0,-100.121 C 395.226,22.918 350.676,22.809 323,50.097 320.781,39.835 315.699,30.068 307.724,22.093 c -22.101,-22.101 -57.934,-22.101 -80.036,0 -3.167,3.167 -5.864,6.622 -8.123,10.272 -28.698,-14.07 -64.337,-9.195 -88.199,14.667 -27.576,27.576 -29.802,70.878 -6.721,101.019 -16.384,2.038 -32.241,9.325 -44.82,21.905 -30.023,30.023 -30.023,78.699 0,108.721 15.196,15.196 35.171,22.687 55.087,22.5 -3.492,15.27 0.698,31.942 12.592,43.836 18.389,18.389 48.203,18.389 66.592,0 2.557,-2.557 4.745,-5.34 6.59,-8.277 0.277,0.286 0.539,0.582 0.822,0.865 29.47,29.47 77.249,29.47 106.719,0 10.028,-10.028 16.635,-22.178 19.838,-35.003 26.93,6.874 56.689,-0.212 77.768,-21.29 31.791,-31.791 31.791,-83.333 10e-4,-115.122 z"
   id="path5"
   inkscape:connector-curvature="0"
   style="fill:#2ba52e" />
</g>
<g
   id="Layer_4"
   transform="translate(0,-5)">
	<path
   d="m 254.365,411.485 c -1.01,0 -2.037,-0.213 -3.015,-0.662 -34.656,-15.938 -80.328,-43.021 -76.842,-93.966 0.272,-3.981 3.722,-6.987 7.701,-6.715 3.981,0.272 6.987,3.72 6.715,7.701 -2.843,41.56 35.095,64.505 68.464,79.851 3.626,1.668 5.213,5.958 3.546,9.583 -1.218,2.648 -3.834,4.208 -6.569,4.208 z"
   id="path8"
   inkscape:connector-curvature="0"
   style="fill:#8e6049" />
</g>
</svg>