<?xml version="1.0" encoding="UTF-8" standalone="no"?>
<!DOCTYPE svg PUBLIC "-//W3C//DTD SVG 1.1//EN"
 "http://www.w3.org/Graphics/SVG/1.1/DTD/svg11.dtd">
<!-- Generated by graphviz version 2.40.1 (20161225.0304)
 -->
<!-- Title: %0 Pages: 1 -->
<svg width="1171pt" height="1412pt"
 viewBox="0.00 0.00 1171.05 1412.00" xmlns="http://www.w3.org/2000/svg" xmlns:xlink="http://www.w3.org/1999/xlink">
<g id="graph0" class="graph" transform="scale(1 1) rotate(0) translate(4 1408)">
<title>%0</title>
<polygon fill="#ffffff" stroke="transparent" points="-4,4 -4,-1408 1167.0511,-1408 1167.0511,4 -4,4"/>
<!-- Instruction_RefreshPositions -->
<g id="node1" class="node">
<title>Instruction_RefreshPositions</title>
<ellipse fill="none" stroke="#000000" cx="452.8849" cy="-90" rx="123.2901" ry="18"/>
<text text-anchor="middle" x="452.8849" y="-85.8" font-family="Times,serif" font-size="14.00" fill="#000000">Instruction_RefreshPositions</text>
</g>
<!-- BuildCrops -->
<g id="node2" class="node">
<title>BuildCrops</title>
<ellipse fill="none" stroke="#000000" cx="323.8849" cy="-18" rx="55.6372" ry="18"/>
<text text-anchor="middle" x="323.8849" y="-13.8" font-family="Times,serif" font-size="14.00" fill="#000000">BuildCrops</text>
</g>
<!-- Instruction_RefreshPositions&#45;&gt;BuildCrops -->
<g id="edge1" class="edge">
<title>Instruction_RefreshPositions&#45;&gt;BuildCrops</title>
<path fill="none" stroke="#000000" d="M421.6576,-72.5708C403.376,-62.3672 380.1836,-49.4226 360.9754,-38.7017"/>
<polygon fill="#000000" stroke="#000000" points="362.6223,-35.6127 352.1845,-33.7951 359.2107,-41.725 362.6223,-35.6127"/>
</g>
<!-- BuildTown -->
<g id="node5" class="node">
<title>BuildTown</title>
<ellipse fill="none" stroke="#000000" cx="452.8849" cy="-18" rx="55.0575" ry="18"/>
<text text-anchor="middle" x="452.8849" y="-13.8" font-family="Times,serif" font-size="14.00" fill="#000000">BuildTown</text>
</g>
<!-- Instruction_RefreshPositions&#45;&gt;BuildTown -->
<g id="edge3" class="edge">
<title>Instruction_RefreshPositions&#45;&gt;BuildTown</title>
<path fill="none" stroke="#000000" d="M452.8849,-71.8314C452.8849,-64.131 452.8849,-54.9743 452.8849,-46.4166"/>
<polygon fill="#000000" stroke="#000000" points="456.385,-46.4132 452.8849,-36.4133 449.385,-46.4133 456.385,-46.4132"/>
</g>
<!-- RemoveCrops -->
<g id="node18" class="node">
<title>RemoveCrops</title>
<ellipse fill="none" stroke="#000000" cx="591.8849" cy="-18" rx="66.0743" ry="18"/>
<text text-anchor="middle" x="591.8849" y="-13.8" font-family="Times,serif" font-size="14.00" fill="#000000">RemoveCrops</text>
</g>
<!-- Instruction_RefreshPositions&#45;&gt;RemoveCrops -->
<g id="edge14" class="edge">
<title>Instruction_RefreshPositions&#45;&gt;RemoveCrops</title>
<path fill="none" stroke="#000000" d="M486.5329,-72.5708C506.2699,-62.3473 531.3191,-49.3722 552.0397,-38.6392"/>
<polygon fill="#000000" stroke="#000000" points="553.6533,-41.7451 560.923,-34.0378 550.4337,-35.5295 553.6533,-41.7451"/>
</g>
<!-- RemoveTown -->
<g id="node20" class="node">
<title>RemoveTown</title>
<ellipse fill="none" stroke="#000000" cx="741.8849" cy="-18" rx="65.9949" ry="18"/>
<text text-anchor="middle" x="741.8849" y="-13.8" font-family="Times,serif" font-size="14.00" fill="#000000">RemoveTown</text>
</g>
<!-- Instruction_RefreshPositions&#45;&gt;RemoveTown -->
<g id="edge16" class="edge">
<title>Instruction_RefreshPositions&#45;&gt;RemoveTown</title>
<path fill="none" stroke="#000000" d="M515.2378,-74.4657C565.0694,-62.0509 634.4184,-44.7736 683.2455,-32.6091"/>
<polygon fill="#000000" stroke="#000000" points="684.1745,-35.9847 693.0318,-30.171 682.4822,-29.1924 684.1745,-35.9847"/>
</g>
<!-- Instruction_RefreshEdges -->
<g id="node3" class="node">
<title>Instruction_RefreshEdges</title>
<ellipse fill="none" stroke="#000000" cx="186.8849" cy="-90" rx="111.1557" ry="18"/>
<text text-anchor="middle" x="186.8849" y="-85.8" font-family="Times,serif" font-size="14.00" fill="#000000">Instruction_RefreshEdges</text>
</g>
<!-- BuildRoad -->
<g id="node4" class="node">
<title>BuildRoad</title>
<ellipse fill="none" stroke="#000000" cx="52.8849" cy="-18" rx="52.77" ry="18"/>
<text text-anchor="middle" x="52.8849" y="-13.8" font-family="Times,serif" font-size="14.00" fill="#000000">BuildRoad</text>
</g>
<!-- Instruction_RefreshEdges&#45;&gt;BuildRoad -->
<g id="edge2" class="edge">
<title>Instruction_RefreshEdges&#45;&gt;BuildRoad</title>
<path fill="none" stroke="#000000" d="M154.7885,-72.7542C135.4511,-62.3639 110.7318,-49.0819 90.4824,-38.2016"/>
<polygon fill="#000000" stroke="#000000" points="91.994,-35.0407 81.5285,-33.3906 88.6808,-41.2069 91.994,-35.0407"/>
</g>
<!-- RemoveRoad -->
<g id="node19" class="node">
<title>RemoveRoad</title>
<ellipse fill="none" stroke="#000000" cx="186.8849" cy="-18" rx="63.7064" ry="18"/>
<text text-anchor="middle" x="186.8849" y="-13.8" font-family="Times,serif" font-size="14.00" fill="#000000">RemoveRoad</text>
</g>
<!-- Instruction_RefreshEdges&#45;&gt;RemoveRoad -->
<g id="edge15" class="edge">
<title>Instruction_RefreshEdges&#45;&gt;RemoveRoad</title>
<path fill="none" stroke="#000000" d="M186.8849,-71.8314C186.8849,-64.131 186.8849,-54.9743 186.8849,-46.4166"/>
<polygon fill="#000000" stroke="#000000" points="190.385,-46.4132 186.8849,-36.4133 183.385,-46.4133 190.385,-46.4132"/>
</g>
<!-- Instruction_GetDemand -->
<g id="node6" class="node">
<title>Instruction_GetDemand</title>
<ellipse fill="none" stroke="#000000" cx="435.8849" cy="-666" rx="104.2149" ry="18"/>
<text text-anchor="middle" x="435.8849" y="-661.8" font-family="Times,serif" font-size="14.00" fill="#000000">Instruction_GetDemand</text>
</g>
<!-- GetDemand -->
<g id="node7" class="node">
<title>GetDemand</title>
<ellipse fill="none" stroke="#000000" cx="435.8849" cy="-594" rx="57.8849" ry="18"/>
<text text-anchor="middle" x="435.8849" y="-589.8" font-family="Times,serif" font-size="14.00" fill="#000000">GetDemand</text>
</g>
<!-- Instruction_GetDemand&#45;&gt;GetDemand -->
<g id="edge4" class="edge">
<title>Instruction_GetDemand&#45;&gt;GetDemand</title>
<path fill="none" stroke="#000000" d="M435.8849,-647.8314C435.8849,-640.131 435.8849,-630.9743 435.8849,-622.4166"/>
<polygon fill="#000000" stroke="#000000" points="439.385,-622.4132 435.8849,-612.4133 432.385,-622.4133 439.385,-622.4132"/>
</g>
<!-- Instruction_GetRoutes -->
<g id="node8" class="node">
<title>Instruction_GetRoutes</title>
<ellipse fill="none" stroke="#000000" cx="435.8849" cy="-522" rx="98.4333" ry="18"/>
<text text-anchor="middle" x="435.8849" y="-517.8" font-family="Times,serif" font-size="14.00" fill="#000000">Instruction_GetRoutes</text>
</g>
<!-- GetDemand&#45;&gt;Instruction_GetRoutes -->
<g id="edge5" class="edge">
<title>GetDemand&#45;&gt;Instruction_GetRoutes</title>
<path fill="none" stroke="#000000" d="M435.8849,-575.8314C435.8849,-568.131 435.8849,-558.9743 435.8849,-550.4166"/>
<polygon fill="#000000" stroke="#000000" points="439.385,-550.4132 435.8849,-540.4133 432.385,-550.4133 439.385,-550.4132"/>
</g>
<!-- GetRoutes -->
<g id="node12" class="node">
<title>GetRoutes</title>
<ellipse fill="none" stroke="#000000" cx="435.8849" cy="-450" rx="51.6035" ry="18"/>
<text text-anchor="middle" x="435.8849" y="-445.8" font-family="Times,serif" font-size="14.00" fill="#000000">GetRoutes</text>
</g>
<!-- Instruction_GetRoutes&#45;&gt;GetRoutes -->
<g id="edge8" class="edge">
<title>Instruction_GetRoutes&#45;&gt;GetRoutes</title>
<path fill="none" stroke="#000000" d="M435.8849,-503.8314C435.8849,-496.131 435.8849,-486.9743 435.8849,-478.4166"/>
<polygon fill="#000000" stroke="#000000" points="439.385,-478.4132 435.8849,-468.4133 432.385,-478.4133 439.385,-478.4132"/>
</g>
<!-- Instruction_GetRouteChanges -->
<g id="node9" class="node">
<title>Instruction_GetRouteChanges</title>
<ellipse fill="none" stroke="#000000" cx="435.8849" cy="-378" rx="127.9314" ry="18"/>
<text text-anchor="middle" x="435.8849" y="-373.8" font-family="Times,serif" font-size="14.00" fill="#000000">Instruction_GetRouteChanges</text>
</g>
<!-- GetRouteChanges -->
<g id="node10" class="node">
<title>GetRouteChanges</title>
<ellipse fill="none" stroke="#000000" cx="435.8849" cy="-306" rx="81.1014" ry="18"/>
<text text-anchor="middle" x="435.8849" y="-301.8" font-family="Times,serif" font-size="14.00" fill="#000000">GetRouteChanges</text>
</g>
<!-- Instruction_GetRouteChanges&#45;&gt;GetRouteChanges -->
<g id="edge6" class="edge">
<title>Instruction_GetRouteChanges&#45;&gt;GetRouteChanges</title>
<path fill="none" stroke="#000000" d="M435.8849,-359.8314C435.8849,-352.131 435.8849,-342.9743 435.8849,-334.4166"/>
<polygon fill="#000000" stroke="#000000" points="439.385,-334.4132 435.8849,-324.4133 432.385,-334.4133 439.385,-334.4132"/>
</g>
<!-- Instruction_ProcessRouteChanges -->
<g id="node11" class="node">
<title>Instruction_ProcessRouteChanges</title>
<ellipse fill="none" stroke="#000000" cx="435.8849" cy="-234" rx="143.5403" ry="18"/>
<text text-anchor="middle" x="435.8849" y="-229.8" font-family="Times,serif" font-size="14.00" fill="#000000">Instruction_ProcessRouteChanges</text>
</g>
<!-- GetRouteChanges&#45;&gt;Instruction_ProcessRouteChanges -->
<g id="edge7" class="edge">
<title>GetRouteChanges&#45;&gt;Instruction_ProcessRouteChanges</title>
<path fill="none" stroke="#000000" d="M435.8849,-287.8314C435.8849,-280.131 435.8849,-270.9743 435.8849,-262.4166"/>
<polygon fill="#000000" stroke="#000000" points="439.385,-262.4132 435.8849,-252.4133 432.385,-262.4133 439.385,-262.4132"/>
</g>
<!-- UpdateEdgeTraffic -->
<g id="node28" class="node">
<title>UpdateEdgeTraffic</title>
<ellipse fill="none" stroke="#000000" cx="218.8849" cy="-162" rx="85.6319" ry="18"/>
<text text-anchor="middle" x="218.8849" y="-157.8" font-family="Times,serif" font-size="14.00" fill="#000000">UpdateEdgeTraffic</text>
</g>
<!-- Instruction_ProcessRouteChanges&#45;&gt;UpdateEdgeTraffic -->
<g id="edge25" class="edge">
<title>Instruction_ProcessRouteChanges&#45;&gt;UpdateEdgeTraffic</title>
<path fill="none" stroke="#000000" d="M385.008,-217.1192C351.9434,-206.1484 308.8209,-191.8405 274.7977,-180.5517"/>
<polygon fill="#000000" stroke="#000000" points="275.6001,-177.1304 265.0066,-177.3031 273.3956,-183.7742 275.6001,-177.1304"/>
</g>
<!-- UpdatePositionTraffic -->
<g id="node30" class="node">
<title>UpdatePositionTraffic</title>
<ellipse fill="none" stroke="#000000" cx="435.8849" cy="-162" rx="97.2664" ry="18"/>
<text text-anchor="middle" x="435.8849" y="-157.8" font-family="Times,serif" font-size="14.00" fill="#000000">UpdatePositionTraffic</text>
</g>
<!-- Instruction_ProcessRouteChanges&#45;&gt;UpdatePositionTraffic -->
<g id="edge28" class="edge">
<title>Instruction_ProcessRouteChanges&#45;&gt;UpdatePositionTraffic</title>
<path fill="none" stroke="#000000" d="M435.8849,-215.8314C435.8849,-208.131 435.8849,-198.9743 435.8849,-190.4166"/>
<polygon fill="#000000" stroke="#000000" points="439.385,-190.4132 435.8849,-180.4133 432.385,-190.4133 439.385,-190.4132"/>
</g>
<!-- UpdateRouteToPorts -->
<g id="node31" class="node">
<title>UpdateRouteToPorts</title>
<ellipse fill="none" stroke="#000000" cx="643.8849" cy="-162" rx="92.6364" ry="18"/>
<text text-anchor="middle" x="643.8849" y="-157.8" font-family="Times,serif" font-size="14.00" fill="#000000">UpdateRouteToPorts</text>
</g>
<!-- Instruction_ProcessRouteChanges&#45;&gt;UpdateRouteToPorts -->
<g id="edge30" class="edge">
<title>Instruction_ProcessRouteChanges&#45;&gt;UpdateRouteToPorts</title>
<path fill="none" stroke="#000000" d="M484.9146,-217.0282C516.0444,-206.2525 556.3952,-192.2849 588.6537,-181.1185"/>
<polygon fill="#000000" stroke="#000000" points="590.0811,-184.3282 598.386,-177.7496 587.7913,-177.7133 590.0811,-184.3282"/>
</g>
<!-- GetRoutes&#45;&gt;Instruction_GetRouteChanges -->
<g id="edge9" class="edge">
<title>GetRoutes&#45;&gt;Instruction_GetRouteChanges</title>
<path fill="none" stroke="#000000" d="M435.8849,-431.8314C435.8849,-424.131 435.8849,-414.9743 435.8849,-406.4166"/>
<polygon fill="#000000" stroke="#000000" points="439.385,-406.4132 435.8849,-396.4133 432.385,-406.4133 439.385,-406.4132"/>
</g>
<!-- Instruction_GetTerritory -->
<g id="node13" class="node">
<title>Instruction_GetTerritory</title>
<ellipse fill="none" stroke="#000000" cx="879.8849" cy="-1242" rx="106.4966" ry="18"/>
<text text-anchor="middle" x="879.8849" y="-1237.8" font-family="Times,serif" font-size="14.00" fill="#000000">Instruction_GetTerritory</text>
</g>
<!-- GetTerritory -->
<g id="node14" class="node">
<title>GetTerritory</title>
<ellipse fill="none" stroke="#000000" cx="832.8849" cy="-1170" rx="59.6666" ry="18"/>
<text text-anchor="middle" x="832.8849" y="-1165.8" font-family="Times,serif" font-size="14.00" fill="#000000">GetTerritory</text>
</g>
<!-- Instruction_GetTerritory&#45;&gt;GetTerritory -->
<g id="edge10" class="edge">
<title>Instruction_GetTerritory&#45;&gt;GetTerritory</title>
<path fill="none" stroke="#000000" d="M868.0248,-1223.8314C862.5843,-1215.497 856.0302,-1205.4567 850.0635,-1196.3162"/>
<polygon fill="#000000" stroke="#000000" points="852.9755,-1194.374 844.5784,-1187.9134 847.1138,-1198.2004 852.9755,-1194.374"/>
</g>
<!-- Instruction_GetTownTraffic -->
<g id="node15" class="node">
<title>Instruction_GetTownTraffic</title>
<ellipse fill="none" stroke="#000000" cx="686.8849" cy="-1098" rx="120.9443" ry="18"/>
<text text-anchor="middle" x="686.8849" y="-1093.8" font-family="Times,serif" font-size="14.00" fill="#000000">Instruction_GetTownTraffic</text>
</g>
<!-- GetTerritory&#45;&gt;Instruction_GetTownTraffic -->
<g id="edge11" class="edge">
<title>GetTerritory&#45;&gt;Instruction_GetTownTraffic</title>
<path fill="none" stroke="#000000" d="M801.5642,-1154.5542C781.0181,-1144.4219 753.8475,-1131.0226 731.1106,-1119.8099"/>
<polygon fill="#000000" stroke="#000000" points="732.5109,-1116.5981 721.9941,-1115.3141 729.4148,-1122.8762 732.5109,-1116.5981"/>
</g>
<!-- GetTownTraffic -->
<g id="node16" class="node">
<title>GetTownTraffic</title>
<ellipse fill="none" stroke="#000000" cx="646.8849" cy="-1026" rx="74.1143" ry="18"/>
<text text-anchor="middle" x="646.8849" y="-1021.8" font-family="Times,serif" font-size="14.00" fill="#000000">GetTownTraffic</text>
</g>
<!-- Instruction_GetTownTraffic&#45;&gt;GetTownTraffic -->
<g id="edge12" class="edge">
<title>Instruction_GetTownTraffic&#45;&gt;GetTownTraffic</title>
<path fill="none" stroke="#000000" d="M676.7912,-1079.8314C672.2564,-1071.6688 666.8127,-1061.87 661.8197,-1052.8827"/>
<polygon fill="#000000" stroke="#000000" points="664.7528,-1050.9552 656.8368,-1043.9134 658.6337,-1054.3548 664.7528,-1050.9552"/>
</g>
<!-- Instruction_UpdateTown -->
<g id="node17" class="node">
<title>Instruction_UpdateTown</title>
<ellipse fill="none" stroke="#000000" cx="606.8849" cy="-954" rx="108.2299" ry="18"/>
<text text-anchor="middle" x="606.8849" y="-949.8" font-family="Times,serif" font-size="14.00" fill="#000000">Instruction_UpdateTown</text>
</g>
<!-- GetTownTraffic&#45;&gt;Instruction_UpdateTown -->
<g id="edge13" class="edge">
<title>GetTownTraffic&#45;&gt;Instruction_UpdateTown</title>
<path fill="none" stroke="#000000" d="M636.7912,-1007.8314C632.3251,-999.7925 626.9774,-990.1666 622.047,-981.2918"/>
<polygon fill="#000000" stroke="#000000" points="625.0305,-979.4551 617.1145,-972.4133 618.9114,-982.8546 625.0305,-979.4551"/>
</g>
<!-- UpdateTown -->
<g id="node32" class="node">
<title>UpdateTown</title>
<ellipse fill="none" stroke="#000000" cx="543.8849" cy="-882" rx="61.3993" ry="18"/>
<text text-anchor="middle" x="543.8849" y="-877.8" font-family="Times,serif" font-size="14.00" fill="#000000">UpdateTown</text>
</g>
<!-- Instruction_UpdateTown&#45;&gt;UpdateTown -->
<g id="edge31" class="edge">
<title>Instruction_UpdateTown&#45;&gt;UpdateTown</title>
<path fill="none" stroke="#000000" d="M590.9873,-935.8314C583.4692,-927.2392 574.3646,-916.834 566.1718,-907.4708"/>
<polygon fill="#000000" stroke="#000000" points="568.7782,-905.1344 559.5591,-899.9134 563.5102,-909.744 568.7782,-905.1344"/>
</g>
<!-- Instruction_Step -->
<g id="node21" class="node">
<title>Instruction_Step</title>
<ellipse fill="none" stroke="#000000" cx="733.8849" cy="-1386" rx="74.7381" ry="18"/>
<text text-anchor="middle" x="733.8849" y="-1381.8" font-family="Times,serif" font-size="14.00" fill="#000000">Instruction_Step</text>
</g>
<!-- StepHomeland -->
<g id="node22" class="node">
<title>StepHomeland</title>
<ellipse fill="none" stroke="#000000" cx="587.8849" cy="-1314" rx="68.3594" ry="18"/>
<text text-anchor="middle" x="587.8849" y="-1309.8" font-family="Times,serif" font-size="14.00" fill="#000000">StepHomeland</text>
</g>
<!-- Instruction_Step&#45;&gt;StepHomeland -->
<g id="edge17" class="edge">
<title>Instruction_Step&#45;&gt;StepHomeland</title>
<path fill="none" stroke="#000000" d="M700.7552,-1369.6621C679.533,-1359.1963 651.8257,-1345.5325 629.1744,-1334.362"/>
<polygon fill="#000000" stroke="#000000" points="630.6467,-1331.1856 620.13,-1329.9017 627.5506,-1337.4637 630.6467,-1331.1856"/>
</g>
<!-- StepTown -->
<g id="node25" class="node">
<title>StepTown</title>
<ellipse fill="none" stroke="#000000" cx="879.8849" cy="-1314" rx="50.9638" ry="18"/>
<text text-anchor="middle" x="879.8849" y="-1309.8" font-family="Times,serif" font-size="14.00" fill="#000000">StepTown</text>
</g>
<!-- Instruction_Step&#45;&gt;StepTown -->
<g id="edge20" class="edge">
<title>Instruction_Step&#45;&gt;StepTown</title>
<path fill="none" stroke="#000000" d="M767.0145,-1369.6621C788.9023,-1358.8681 817.6882,-1344.6723 840.7111,-1333.3186"/>
<polygon fill="#000000" stroke="#000000" points="842.4452,-1336.3659 849.8659,-1328.8039 839.3491,-1330.0878 842.4452,-1336.3659"/>
</g>
<!-- Instruction_UpdateCurrentPopulation -->
<g id="node23" class="node">
<title>Instruction_UpdateCurrentPopulation</title>
<ellipse fill="none" stroke="#000000" cx="435.8849" cy="-810" rx="156.8654" ry="18"/>
<text text-anchor="middle" x="435.8849" y="-805.8" font-family="Times,serif" font-size="14.00" fill="#000000">Instruction_UpdateCurrentPopulation</text>
</g>
<!-- StepHomeland&#45;&gt;Instruction_UpdateCurrentPopulation -->
<g id="edge18" class="edge">
<title>StepHomeland&#45;&gt;Instruction_UpdateCurrentPopulation</title>
<path fill="none" stroke="#000000" d="M532.1476,-1303.4211C486.6813,-1293.669 427.3735,-1278.0085 410.8849,-1260 383.2776,-1229.8479 391.8849,-1210.8816 391.8849,-1170 391.8849,-1170 391.8849,-1170 391.8849,-954 391.8849,-911.9089 409.2913,-865.7993 422.208,-837.3774"/>
<polygon fill="#000000" stroke="#000000" points="425.4823,-838.638 426.5536,-828.0975 419.143,-835.6693 425.4823,-838.638"/>
</g>
<!-- Instruction_UpdateHomelandPopulation -->
<g id="node24" class="node">
<title>Instruction_UpdateHomelandPopulation</title>
<ellipse fill="none" stroke="#000000" cx="587.8849" cy="-1242" rx="167.8232" ry="18"/>
<text text-anchor="middle" x="587.8849" y="-1237.8" font-family="Times,serif" font-size="14.00" fill="#000000">Instruction_UpdateHomelandPopulation</text>
</g>
<!-- StepHomeland&#45;&gt;Instruction_UpdateHomelandPopulation -->
<g id="edge19" class="edge">
<title>StepHomeland&#45;&gt;Instruction_UpdateHomelandPopulation</title>
<path fill="none" stroke="#000000" d="M587.8849,-1295.8314C587.8849,-1288.131 587.8849,-1278.9743 587.8849,-1270.4166"/>
<polygon fill="#000000" stroke="#000000" points="591.385,-1270.4132 587.8849,-1260.4133 584.385,-1270.4133 591.385,-1270.4132"/>
</g>
<!-- UpdateCurrentPopulation -->
<g id="node27" class="node">
<title>UpdateCurrentPopulation</title>
<ellipse fill="none" stroke="#000000" cx="435.8849" cy="-738" rx="110.0353" ry="18"/>
<text text-anchor="middle" x="435.8849" y="-733.8" font-family="Times,serif" font-size="14.00" fill="#000000">UpdateCurrentPopulation</text>
</g>
<!-- Instruction_UpdateCurrentPopulation&#45;&gt;UpdateCurrentPopulation -->
<g id="edge23" class="edge">
<title>Instruction_UpdateCurrentPopulation&#45;&gt;UpdateCurrentPopulation</title>
<path fill="none" stroke="#000000" d="M435.8849,-791.8314C435.8849,-784.131 435.8849,-774.9743 435.8849,-766.4166"/>
<polygon fill="#000000" stroke="#000000" points="439.385,-766.4132 435.8849,-756.4133 432.385,-766.4133 439.385,-766.4132"/>
</g>
<!-- UpdateHomelandPopulation -->
<g id="node29" class="node">
<title>UpdateHomelandPopulation</title>
<ellipse fill="none" stroke="#000000" cx="587.8849" cy="-1170" rx="120.9925" ry="18"/>
<text text-anchor="middle" x="587.8849" y="-1165.8" font-family="Times,serif" font-size="14.00" fill="#000000">UpdateHomelandPopulation</text>
</g>
<!-- Instruction_UpdateHomelandPopulation&#45;&gt;UpdateHomelandPopulation -->
<g id="edge27" class="edge">
<title>Instruction_UpdateHomelandPopulation&#45;&gt;UpdateHomelandPopulation</title>
<path fill="none" stroke="#000000" d="M587.8849,-1223.8314C587.8849,-1216.131 587.8849,-1206.9743 587.8849,-1198.4166"/>
<polygon fill="#000000" stroke="#000000" points="591.385,-1198.4132 587.8849,-1188.4133 584.385,-1198.4133 591.385,-1198.4132"/>
</g>
<!-- StepTown&#45;&gt;Instruction_GetTerritory -->
<g id="edge22" class="edge">
<title>StepTown&#45;&gt;Instruction_GetTerritory</title>
<path fill="none" stroke="#000000" d="M879.8849,-1295.8314C879.8849,-1288.131 879.8849,-1278.9743 879.8849,-1270.4166"/>
<polygon fill="#000000" stroke="#000000" points="883.385,-1270.4132 879.8849,-1260.4133 876.385,-1270.4133 883.385,-1270.4132"/>
</g>
<!-- Instruction_Build -->
<g id="node26" class="node">
<title>Instruction_Build</title>
<ellipse fill="none" stroke="#000000" cx="1083.8849" cy="-1242" rx="79.3329" ry="18"/>
<text text-anchor="middle" x="1083.8849" y="-1237.8" font-family="Times,serif" font-size="14.00" fill="#000000">Instruction_Build</text>
</g>
<!-- StepTown&#45;&gt;Instruction_Build -->
<g id="edge21" class="edge">
<title>StepTown&#45;&gt;Instruction_Build</title>
<path fill="none" stroke="#000000" d="M915.8864,-1301.2936C947.9115,-1289.9906 995.1483,-1273.3188 1031.3836,-1260.5298"/>
<polygon fill="#000000" stroke="#000000" points="1032.5505,-1263.8297 1040.8155,-1257.2009 1030.2207,-1257.2287 1032.5505,-1263.8297"/>
</g>
<!-- UpdateCurrentPopulation&#45;&gt;Instruction_GetDemand -->
<g id="edge24" class="edge">
<title>UpdateCurrentPopulation&#45;&gt;Instruction_GetDemand</title>
<path fill="none" stroke="#000000" d="M435.8849,-719.8314C435.8849,-712.131 435.8849,-702.9743 435.8849,-694.4166"/>
<polygon fill="#000000" stroke="#000000" points="439.385,-694.4132 435.8849,-684.4133 432.385,-694.4133 439.385,-694.4132"/>
</g>
<!-- UpdateEdgeTraffic&#45;&gt;Instruction_RefreshEdges -->
<g id="edge26" class="edge">
<title>UpdateEdgeTraffic&#45;&gt;Instruction_RefreshEdges</title>
<path fill="none" stroke="#000000" d="M210.8099,-143.8314C207.2747,-135.8771 203.0489,-126.369 199.1392,-117.5723"/>
<polygon fill="#000000" stroke="#000000" points="202.3283,-116.1299 195.0686,-108.4133 195.9317,-118.9729 202.3283,-116.1299"/>
</g>
<!-- UpdatePositionTraffic&#45;&gt;Instruction_RefreshPositions -->
<g id="edge29" class="edge">
<title>UpdatePositionTraffic&#45;&gt;Instruction_RefreshPositions</title>
<path fill="none" stroke="#000000" d="M440.1747,-143.8314C441.9928,-136.131 444.1548,-126.9743 446.1754,-118.4166"/>
<polygon fill="#000000" stroke="#000000" points="449.6456,-118.95 448.5373,-108.4133 442.833,-117.3414 449.6456,-118.95"/>
</g>
<!-- UpdateTown&#45;&gt;Instruction_UpdateCurrentPopulation -->
<g id="edge32" class="edge">
<title>UpdateTown&#45;&gt;Instruction_UpdateCurrentPopulation</title>
<path fill="none" stroke="#000000" d="M519.1075,-865.4817C504.9203,-856.0236 486.882,-843.998 471.2284,-833.5623"/>
<polygon fill="#000000" stroke="#000000" points="473.0789,-830.5895 462.8169,-827.9547 469.1959,-836.4139 473.0789,-830.5895"/>
</g>
</g>
</svg>
