<?xml version="1.0" encoding="UTF-8" standalone="no"?>
<svg
   xmlns:dc="http://purl.org/dc/elements/1.1/"
   xmlns:cc="http://creativecommons.org/ns#"
   xmlns:rdf="http://www.w3.org/1999/02/22-rdf-syntax-ns#"
   xmlns:svg="http://www.w3.org/2000/svg"
   xmlns="http://www.w3.org/2000/svg"
   xmlns:sodipodi="http://sodipodi.sourceforge.net/DTD/sodipodi-0.dtd"
   xmlns:inkscape="http://www.inkscape.org/namespaces/inkscape"
   viewBox="0 0 36 36"
   version="1.1"
   id="svg16"
   sodipodi:docname="pasture.svg"
   shape-rendering="crispEdges"
   inkscape:version="0.92.3 (2405546, 2018-03-11)">
  <metadata
     id="metadata22">
    <rdf:RDF>
      <cc:Work
         rdf:about="">
        <dc:format>image/svg+xml</dc:format>
        <dc:type
           rdf:resource="http://purl.org/dc/dcmitype/StillImage" />
        <dc:title></dc:title>
      </cc:Work>
    </rdf:RDF>
  </metadata>
  <defs
     id="defs20" />
  <sodipodi:namedview
     pagecolor="#ffffff"
     bordercolor="#666666"
     borderopacity="1"
     objecttolerance="10"
     gridtolerance="10"
     guidetolerance="10"
     inkscape:pageopacity="0"
     inkscape:pageshadow="2"
     inkscape:window-width="746"
     inkscape:window-height="480"
     id="namedview18"
     showgrid="false"
     inkscape:zoom="6.5555556"
     inkscape:cx="18"
     inkscape:cy="18"
     inkscape:window-x="0"
     inkscape:window-y="0"
     inkscape:window-maximized="0"
     inkscape:current-layer="svg16" />
  <path
     fill="#CCD6DD"
     d="M34 15c0-2-2.127-4.702-4-4-8 3-19-2-19-2-2.209 0-6.857 9.257-5 10 .277.111.541.227.799.343C4.648 20.087 4.283 21.809 6 22c9 1 6.896 14 8 14 1.344 0 2.685-2.614 3.422-5h9.8c.288 2.354.866 5 1.778 5 .866 0 2.611-3.542 3.794-9.142C33.528 24.232 34 20.326 34 15z"
     id="path2" />
  <path
     fill="#31373D"
     d="M10 22c-2 0-4.946.087-6.973.087S-.617 18.609.692 17.305C2 16 6 15 5 11c-.542-2.169 4-3 6-2 4.816 2.408 5 10-2 10 0 0 3 3 1 3zm20-11c-2.586.97-5.485 1.101-8.226.838C20.669 13.231 20 15.031 20 17c0 4.418 3.357 8 7.5 8 2.587 0 4.866-1.396 6.215-3.521.181-1.872.285-4.017.285-6.479 0-2-2.127-4.702-4-4z"
     id="path4" />
  <circle
     fill="#31373D"
     cx="17.5"
     cy="24.5"
     r="3.5"
     id="circle6" />
  <circle
     fill="#31373D"
     cx="30"
     cy="28"
     r="2"
     id="circle8" />
  <path
     fill="#CCD6DD"
     d="M11 9c0 .552-.671 1-1.5 1S5 7.552 5 7s2.23-.308 3 0c2.5 1 3 1.448 3 2z"
     id="path10" />
  <circle
     fill="#CCD6DD"
     cx="8"
     cy="13"
     r="1"
     id="circle12" />
  <path
     fill="#31373D"
     d="M35 24c-.553 0-1-.447-1-1v-5c0-1.44-.561-2-2-2-.553 0-1-.448-1-1s.447-1 1-1c2.542 0 4 1.458 4 4v5c0 .553-.447 1-1 1z"
     id="path14" />
</svg>
