<?xml version="1.0" encoding="UTF-8" standalone="no"?>
<svg
   xmlns:dc="http://purl.org/dc/elements/1.1/"
   xmlns:cc="http://creativecommons.org/ns#"
   xmlns:rdf="http://www.w3.org/1999/02/22-rdf-syntax-ns#"
   xmlns:svg="http://www.w3.org/2000/svg"
   xmlns="http://www.w3.org/2000/svg"
   xmlns:sodipodi="http://sodipodi.sourceforge.net/DTD/sodipodi-0.dtd"
   xmlns:inkscape="http://www.inkscape.org/namespaces/inkscape"
   viewBox="0 0 36 36"
   version="1.1"
   id="svg16"
   sodipodi:docname="spice.svg"
   shape-rendering="crispEdges"
   inkscape:version="0.92.3 (2405546, 2018-03-11)">
  <metadata
     id="metadata22">
    <rdf:RDF>
      <cc:Work
         rdf:about="">
        <dc:format>image/svg+xml</dc:format>
        <dc:type
           rdf:resource="http://purl.org/dc/dcmitype/StillImage" />
        <dc:title></dc:title>
      </cc:Work>
    </rdf:RDF>
  </metadata>
  <defs
     id="defs20" />
  <sodipodi:namedview
     pagecolor="#ffffff"
     bordercolor="#666666"
     borderopacity="1"
     objecttolerance="10"
     gridtolerance="10"
     guidetolerance="10"
     inkscape:pageopacity="0"
     inkscape:pageshadow="2"
     inkscape:window-width="744"
     inkscape:window-height="480"
     id="namedview18"
     showgrid="false"
     inkscape:zoom="6.5555556"
     inkscape:cx="18"
     inkscape:cy="18"
     inkscape:window-x="0"
     inkscape:window-y="0"
     inkscape:window-maximized="0"
     inkscape:current-layer="svg16" />
  <path
     fill="#C1694F"
     d="M36 25c0 4-8.059 11-18 11S0 29 0 25C0 6 17 0 18 0s18 6 18 25z"
     id="path2" />
  <g
     fill="#A95233"
     id="g12">
    <path
       d="M3.001 29.385c-.05 0-.1-.004-.15-.012-.546-.082-.922-.591-.84-1.137.134-.895 3.43-21.968 15.535-28.127.493-.252 1.094-.054 1.345.438.25.492.054 1.094-.438 1.345C7.267 7.583 4.021 28.325 3.989 28.533c-.075.496-.501.852-.988.852z"
       id="path4" />
    <path
       d="M32.999 29.385c-.486 0-.913-.355-.988-.852-.031-.208-3.277-20.95-14.464-26.642-.492-.251-.688-.853-.438-1.345.25-.492.854-.689 1.344-.438 12.107 6.16 15.401 27.234 15.536 28.128.082.546-.294 1.055-.841 1.137-.049.008-.1.012-.149.012z"
       id="path6" />
    <path
       d="M12.001 33l-.054-.001c-.551-.029-.975-.501-.945-1.052.053-.999 1.356-24.544 6.176-31.516.314-.455.938-.567 1.391-.254.455.314.568.937.254 1.392-4.5 6.508-5.811 30.246-5.824 30.484-.029.534-.47.947-.998.947z"
       id="path8" />
    <path
       d="M23.999 33c-.527 0-.969-.413-.998-.947-.013-.238-1.324-23.976-5.824-30.484-.314-.454-.2-1.077.254-1.392.456-.314 1.079-.2 1.391.254 4.819 6.972 6.123 30.517 6.177 31.516.029.551-.395 1.021-.946 1.052l-.054.001z"
       id="path10" />
  </g>
  <path
     fill="#662113"
     d="M36 25c0 4-8.059 11-18 11S0 29 0 25c3 4 10 7 18 7s15-3 18-7z"
     id="path14" />
</svg>
