<?xml version="1.0" encoding="UTF-8" standalone="no"?>
<svg
   xmlns:dc="http://purl.org/dc/elements/1.1/"
   xmlns:cc="http://creativecommons.org/ns#"
   xmlns:rdf="http://www.w3.org/1999/02/22-rdf-syntax-ns#"
   xmlns:svg="http://www.w3.org/2000/svg"
   xmlns="http://www.w3.org/2000/svg"
   xmlns:sodipodi="http://sodipodi.sourceforge.net/DTD/sodipodi-0.dtd"
   xmlns:inkscape="http://www.inkscape.org/namespaces/inkscape"
   viewBox="0 0 36 36"
   version="1.1"
   id="svg6"
   sodipodi:docname="truffles.svg"
   shape-rendering="crispEdges"
   inkscape:version="0.92.3 (2405546, 2018-03-11)">
  <metadata
     id="metadata12">
    <rdf:RDF>
      <cc:Work
         rdf:about="">
        <dc:format>image/svg+xml</dc:format>
        <dc:type
           rdf:resource="http://purl.org/dc/dcmitype/StillImage" />
        <dc:title></dc:title>
      </cc:Work>
    </rdf:RDF>
  </metadata>
  <defs
     id="defs10" />
  <sodipodi:namedview
     pagecolor="#ffffff"
     bordercolor="#666666"
     borderopacity="1"
     objecttolerance="10"
     gridtolerance="10"
     guidetolerance="10"
     inkscape:pageopacity="0"
     inkscape:pageshadow="2"
     inkscape:window-width="744"
     inkscape:window-height="480"
     id="namedview8"
     showgrid="false"
     inkscape:zoom="6.5555556"
     inkscape:cx="18"
     inkscape:cy="18"
     inkscape:window-x="0"
     inkscape:window-y="0"
     inkscape:window-maximized="0"
     inkscape:current-layer="svg6" />
  <path
     fill="#F4ABBA"
     d="M33.738 20.368c-.799-5.543-5.186-9.78-12.562-9.78-.293 0-.621.012-.964.03-1.479.058-2.961.248-4.399.56-.749.144-1.507.317-2.253.514-.775-1.051-2.342-2.163-2.736-2.163-.512 0-.038 1.871-.006 3.052-.88.349-1.685.742-2.347 1.183-3.177 2.118-3.177 3.177-6.838 3.177-1.632 0-1.588 1.658-1.588 3.705 0 2.046-.044 2.618 1.588 3.707 2.183 1.456 4.731 3.612 7.952 5.386C11.608 32.886 9.91 36 11.648 36c1.226 0 2.807-1.964 3.647-3.944 1.788.474 3.732.769 5.881.769 1.142 0 2.204-.089 3.201-.245.272 1.944-.16 3.42 1.035 3.42 1.555 0 6.998-4.994 8.218-11.29.06-.287.103-.582.142-.882.012-.09.028-.18.038-.271.021-.199.03-.404.041-.608 1.046.275 2.149.693 2.149-.175 0-.705-1.119-1.715-2.262-2.406z"
     id="path2" />
  <path
     fill="#292F33"
     d="M10.588 16.941c0 .584-.474 1.059-1.059 1.059-.584 0-1.059-.474-1.059-1.059s.474-1.059 1.059-1.059 1.059.474 1.059 1.059z"
     id="path4" />
</svg>
