<?xml version="1.0" encoding="UTF-8" standalone="no"?>
<svg
   xmlns:dc="http://purl.org/dc/elements/1.1/"
   xmlns:cc="http://creativecommons.org/ns#"
   xmlns:rdf="http://www.w3.org/1999/02/22-rdf-syntax-ns#"
   xmlns:svg="http://www.w3.org/2000/svg"
   xmlns="http://www.w3.org/2000/svg"
   xmlns:sodipodi="http://sodipodi.sourceforge.net/DTD/sodipodi-0.dtd"
   xmlns:inkscape="http://www.inkscape.org/namespaces/inkscape"
   viewBox="0 0 36 36"
   version="1.1"
   id="svg8"
   sodipodi:docname="whales.svg"
   shape-rendering="crispEdges"
   inkscape:version="0.92.3 (2405546, 2018-03-11)">
  <metadata
     id="metadata14">
    <rdf:RDF>
      <cc:Work
         rdf:about="">
        <dc:format>image/svg+xml</dc:format>
        <dc:type
           rdf:resource="http://purl.org/dc/dcmitype/StillImage" />
        <dc:title></dc:title>
      </cc:Work>
    </rdf:RDF>
  </metadata>
  <defs
     id="defs12" />
  <sodipodi:namedview
     pagecolor="#ffffff"
     bordercolor="#666666"
     borderopacity="1"
     objecttolerance="10"
     gridtolerance="10"
     guidetolerance="10"
     inkscape:pageopacity="0"
     inkscape:pageshadow="2"
     inkscape:window-width="746"
     inkscape:window-height="480"
     id="namedview10"
     showgrid="false"
     inkscape:zoom="6.5555556"
     inkscape:cx="18"
     inkscape:cy="18"
     inkscape:window-x="0"
     inkscape:window-y="0"
     inkscape:window-maximized="0"
     inkscape:current-layer="svg8" />
  <path
     fill="#3B88C3"
     d="M36 7.001c-2 3-2-1-5 2-3-2-3 3-6 0 .899 2.699 3.419 4.574 6.1 4.926-.277 1.789.202 3.946-2.1 6.073-2.008 1.857-3.023.312-8-2.999-3-1.996-5-4-10-3C5.117 15.178 0 20 0 22s3 13.969 21 13.969c2 0 5.243-.664 8-2.969 5.955-4.978 5.882-15.349 4.58-19.456C35.36 12.417 36 9.394 36 7.001z"
     id="path2" />
  <path
     fill="#55ACEE"
     d="M30.214 31.812c.149-.165.289-.338.429-.511 1.879-2.351 2.902-5.349 3.355-8.29C31.999 28.008 30.992 33 20 33 9 33 5 20 0 22c0 2 3 13.969 21 13.969 2 0 5.243-.664 8-2.969.318-.266.612-.554.899-.849.107-.111.212-.223.315-.339z"
     id="path4" />
  <circle
     fill="#292F33"
     cx="6.5"
     cy="21.5"
     r="1.5"
     id="circle6" />
</svg>
